# Blender 5.1.0
# www.blender.org
mtllib M.Kelp.mtl
o Kelp
v 0.000000 4.000000 0.500000
v 0.000000 0.000000 0.500000
v 0.000000 4.000000 -0.500000
v 0.000000 -0.000000 -0.500000
v 0.499999 4.000000 -0.000001
v 0.500000 0.000000 0.000000
v -0.500000 4.000000 -0.000001
v -0.500000 0.000000 0.000000
v 0.499999 3.428571 -0.000001
v 0.499999 2.857143 -0.000000
v 0.500000 2.285714 -0.000000
v 0.500000 1.714286 -0.000000
v 0.500000 1.142857 -0.000000
v 0.500000 0.571428 -0.000000
v -0.500000 0.571428 -0.000000
v -0.500000 1.142857 -0.000000
v -0.500000 1.714285 -0.000000
v -0.500000 2.285714 -0.000000
v -0.500000 2.857143 -0.000000
v -0.500000 3.428571 -0.000000
v 0.000000 3.428571 0.500000
v 0.000000 2.857143 0.500000
v 0.000000 2.285714 0.500000
v 0.000000 1.714286 0.500000
v 0.000000 1.142857 0.500000
v 0.000000 0.571429 0.500000
v 0.000000 0.571428 -0.500000
v 0.000000 1.142857 -0.500000
v 0.000000 1.714286 -0.500000
v 0.000000 2.285714 -0.500000
v 0.000000 2.857143 -0.500000
v 0.000000 3.428571 -0.500000
vn 1.0000 -0.0000 -0.0000
vn -0.0000 -0.0000 -1.0000
vt 0.000000 0.142857
vt 0.000000 0.000000
vt 1.000000 0.000000
vt 1.000000 0.142857
vt 0.000000 1.000000
vt 0.000000 0.857143
vt 1.000000 0.857143
vt 1.000000 1.000000
vt 0.000000 0.714286
vt 1.000000 0.714286
vt 0.000000 0.571428
vt 1.000000 0.571429
vt 0.000000 0.428571
vt 1.000000 0.428571
vt 0.000000 0.285714
vt 1.000000 0.285714
s 1
usemtl Material.001
f 26/1/1 2/2/1 4/3/1 27/4/1
f 1/5/1 21/6/1 32/7/1 3/8/1
f 21/6/1 22/9/1 31/10/1 32/7/1
f 22/9/1 23/11/1 30/12/1 31/10/1
f 23/11/1 24/13/1 29/14/1 30/12/1
f 24/13/1 25/15/1 28/16/1 29/14/1
f 25/15/1 26/1/1 27/4/1 28/16/1
usemtl Material.002
f 14/1/2 6/2/2 8/3/2 15/4/2
f 5/5/2 9/6/2 20/7/2 7/8/2
f 9/6/2 10/9/2 19/10/2 20/7/2
f 10/9/2 11/11/2 18/12/2 19/10/2
f 11/11/2 12/13/2 17/14/2 18/12/2
f 12/13/2 13/15/2 16/16/2 17/14/2
f 13/15/2 14/1/2 15/4/2 16/16/2
