# Blender 4.0.2
# www.blender.org
mtllib Kelp_Mesh_SubDiv.mtl
o Kelp
v -0.375000 -0.018967 0.000000
v -0.375000 4.106033 -0.000000
v 0.375000 -0.018967 0.000000
v 0.375000 4.106033 -0.000000
v 0.375000 0.393533 -0.000000
v 0.375000 0.806033 -0.000000
v 0.375000 1.218533 -0.000000
v 0.375000 1.631033 -0.000000
v 0.375000 2.043533 -0.000000
v 0.375000 2.456033 -0.000000
v 0.375000 2.868533 -0.000000
v 0.375000 3.281033 -0.000000
v 0.375000 3.693533 -0.000000
v -0.375000 0.393533 -0.000000
v -0.375000 0.806033 -0.000000
v -0.375000 1.218533 -0.000000
v -0.375000 1.631033 -0.000000
v -0.375000 2.043533 -0.000000
v -0.375000 2.456033 -0.000000
v -0.375000 2.868533 -0.000000
v -0.375000 3.281033 -0.000000
v -0.375000 3.693533 -0.000000
vn -0.0000 -0.0000 -1.0000
vt 1.000000 0.900000
vt 1.000000 1.000000
vt 0.000000 1.000000
vt 0.000000 0.900000
vt 1.000000 -0.000000
vt 1.000000 0.100000
vt 0.000000 0.100000
vt -0.000000 0.000000
vt 1.000000 0.200000
vt 0.000000 0.200000
vt 1.000000 0.300000
vt 0.000000 0.300000
vt 1.000000 0.400000
vt 0.000000 0.400000
vt 1.000000 0.500000
vt 0.000000 0.500000
vt 1.000000 0.600000
vt 0.000000 0.600000
vt 1.000000 0.700000
vt 0.000000 0.700000
vt 1.000000 0.800000
vt 0.000000 0.800000
s 0
f 22/1/1 2/2/1 4/3/1 13/4/1
f 1/5/1 14/6/1 5/7/1 3/8/1
f 14/6/1 15/9/1 6/10/1 5/7/1
f 15/9/1 16/11/1 7/12/1 6/10/1
f 16/11/1 17/13/1 8/14/1 7/12/1
f 17/13/1 18/15/1 9/16/1 8/14/1
f 18/15/1 19/17/1 10/18/1 9/16/1
f 19/17/1 20/19/1 11/20/1 10/18/1
f 20/19/1 21/21/1 12/22/1 11/20/1
f 21/21/1 22/1/1 13/4/1 12/22/1
